<?xml version="1.0" standalone="yes"?><svg xmlns="http://www.w3.org/2000/svg" width="33.115" height="33.115" viewBox="0 0 33.115 33.115" style="zoom: 1;"><path id="icons8-instagram" d="M12.2,3A9.2,9.2,0,0,0,3,12.2V26.917a9.2,9.2,0,0,0,9.2,9.2H26.917a9.2,9.2,0,0,0,9.2-9.2V12.2a9.2,9.2,0,0,0-9.2-9.2ZM30.6,6.679a1.84,1.84,0,1,1-1.84,1.84A1.84,1.84,0,0,1,30.6,6.679ZM19.558,10.359a9.2,9.2,0,1,1-9.2,9.2A9.2,9.2,0,0,1,19.558,10.359Zm0,3.679a5.519,5.519,0,1,0,5.519,5.519,5.519,5.519,0,0,0-5.519-5.519Z" transform="translate(-3 -3)" fill="#fff"></path></svg>