<?xml version="1.0" standalone="yes"?><svg xmlns="http://www.w3.org/2000/svg" width="33.115" height="33.115" viewBox="0 0 33.115 33.115" style="zoom: 1;"><path d="M12.2,3 A9.2,9.2 0 0 0 3,12.2 V26.917 a9.2,9.2 0 0 0 9.2,9.2 H26.917 a9.2,9.2 0 0 0 9.2,-9.2 V12.2 a9.2,9.2 0 0 0 -9.2,-9.2 M30.6,6.679 a1.84,1.84 0 1 1 -1.84,1.84 A1.84,1.84 0 0 1 30.6,6.679 M19.558,10.359 a9.2,9.2 0 1 1 -9.2,9.2 A9.2,9.2 0 0 1 19.558,10.359 m0,3.679 a5.519,5.519 0 1 0 5.519,5.519 a5.519,5.519 0 0 0 -5.519,-5.519 " id="icons8-instagram" transform="translate(-3 -3)" fill="#83cce5"></path></svg>